<svg xmlns="http://www.w3.org/2000/svg" xmlns:xlink="http://www.w3.org/1999/xlink" version="1.1" x="0px" y="0px" viewBox="0 0 100 125" enable-background="new 0 0 100 100" xml:space="preserve"><path d="M54.53,1.792h-9.06c-10.239,0-18.568,8.329-18.568,18.567v7.248v22.781v7.248c0,10.238,8.33,18.567,18.568,18.567H48v18.004  H32.526c-1.104,0-2,0.896-2,2s0.896,2,2,2h34.947c1.104,0,2-0.896,2-2s-0.896-2-2-2H52V76.204h2.53  c10.238,0,18.567-8.329,18.567-18.567v-7.248V27.607v-7.248C73.098,10.121,64.769,1.792,54.53,1.792z M69.098,48.389H30.902V29.607  h38.195V48.389z M54.53,72.204h-9.06c-8.033,0-14.568-6.535-14.568-14.567v-5.248h38.195v5.248  C69.098,65.669,62.563,72.204,54.53,72.204z M69.098,25.607H30.902v-5.248c0-8.033,6.535-14.567,14.568-14.567h9.06  c8.032,0,14.567,6.535,14.567,14.567V25.607z"/><path d="M20.683,33.402c-0.968-0.532-2.184-0.178-2.716,0.789c-1.656,3.01-1.656,6.605,0,9.615c0.364,0.662,1.048,1.037,1.754,1.037  c0.326,0,0.656-0.08,0.962-0.248c0.968-0.532,1.321-1.749,0.789-2.716c-0.992-1.803-0.992-3.957,0-5.76  C22.003,35.15,21.65,33.934,20.683,33.402z"/><path d="M13.814,29.863c-0.967-0.532-2.184-0.179-2.716,0.789c-2.873,5.226-2.873,11.466,0,16.692  c0.364,0.663,1.048,1.037,1.754,1.037c0.326,0,0.656-0.08,0.961-0.248c0.968-0.532,1.321-1.748,0.789-2.716  c-2.209-4.02-2.209-8.819,0-12.839C15.135,31.611,14.782,30.395,13.814,29.863z"/><path d="M7.362,26.221c-0.967-0.531-2.184-0.178-2.716,0.79c-4.125,7.506-4.125,16.469,0,23.975  c0.364,0.663,1.049,1.037,1.755,1.037c0.326,0,0.656-0.079,0.961-0.247c0.968-0.532,1.321-1.749,0.79-2.716  c-3.463-6.3-3.463-13.822,0-20.122C8.683,27.969,8.33,26.753,7.362,26.221z"/><path d="M79.317,33.402c-0.968,0.532-1.321,1.749-0.789,2.716c0.992,1.803,0.992,3.957,0,5.76c-0.532,0.968-0.179,2.184,0.789,2.716  c0.306,0.168,0.636,0.248,0.962,0.248c0.706,0,1.391-0.375,1.755-1.037c1.655-3.01,1.655-6.605,0-9.615  C81.503,33.223,80.288,32.871,79.317,33.402z"/><path d="M86.187,29.862c-0.969,0.532-1.322,1.748-0.79,2.716c2.209,4.02,2.209,8.819,0,12.839c-0.532,0.968-0.179,2.184,0.79,2.716  c0.306,0.168,0.636,0.248,0.961,0.248c0.706,0,1.391-0.375,1.755-1.037c2.871-5.226,2.871-11.466,0-16.692  C88.371,29.685,87.156,29.331,86.187,29.862z"/><path d="M95.354,27.01c-0.532-0.967-1.749-1.32-2.716-0.79c-0.969,0.532-1.322,1.749-0.79,2.716c3.463,6.3,3.463,13.822,0,20.122  c-0.532,0.968-0.179,2.184,0.79,2.716c0.305,0.168,0.636,0.247,0.961,0.247c0.706,0,1.391-0.374,1.755-1.037  C99.48,43.479,99.48,34.517,95.354,27.01z"/><text x="0" y="115" fill="#000000" font-size="5px" font-weight="bold" font-family="'Helvetica Neue', Helvetica, Arial-Unicode, Arial, Sans-serif">Created by Srinivas Agra</text><text x="0" y="120" fill="#000000" font-size="5px" font-weight="bold" font-family="'Helvetica Neue', Helvetica, Arial-Unicode, Arial, Sans-serif">from the Noun Project</text></svg>